<svg width="26" height="27" viewBox="0 0 26 27" fill="none" xmlns="http://www.w3.org/2000/svg">
<path d="M25.7471 10.9539H24.7V10.9H13V16.1H20.347C19.2751 19.127 16.3949 21.3 13 21.3C8.69245 21.3 5.2 17.8075 5.2 13.5C5.2 9.19245 8.69245 5.7 13 5.7C14.9883 5.7 16.7973 6.4501 18.1747 7.67535L21.8517 3.9983C19.5299 1.83445 16.4242 0.5 13 0.5C5.82075 0.5 0 6.32075 0 13.5C0 20.6792 5.82075 26.5 13 26.5C20.1792 26.5 26 20.6792 26 13.5C26 12.6283 25.9103 11.7775 25.7471 10.9539Z" fill="#FFC107"/>
<path d="M1.4989 7.44915L5.77005 10.5815C6.92575 7.7202 9.72465 5.7 13 5.7C14.9884 5.7 16.7973 6.4501 18.1747 7.67535L21.8517 3.9983C19.5299 1.83445 16.4242 0.5 13 0.5C8.0067 0.5 3.6764 3.31905 1.4989 7.44915Z" fill="#FF3D00"/>
<path d="M13 26.5C16.3579 26.5 19.409 25.215 21.7159 23.1252L17.6924 19.7205C16.3872 20.7092 14.7648 21.3 13 21.3C9.61871 21.3 6.74766 19.144 5.66606 16.1351L1.42676 19.4014C3.57826 23.6114 7.94756 26.5 13 26.5Z" fill="#4CAF50"/>
<path d="M25.7471 10.954H24.7V10.9H13V16.1H20.347C19.8322 17.5541 18.8968 18.8079 17.6904 19.7212C17.691 19.7205 17.6917 19.7205 17.6923 19.7199L21.7158 23.1246C21.4311 23.3833 26 20 26 13.5C26 12.6284 25.9103 11.7775 25.7471 10.954Z" fill="#1976D2"/>
</svg>
