<svg width="87" height="86" viewBox="0 0 87 86" fill="none" xmlns="http://www.w3.org/2000/svg">
<path d="M43.5 0C19.746 0 0.5 19.246 0.5 43C0.5 66.754 19.746 86 43.5 86C67.254 86 86.5 66.754 86.5 43C86.5 19.246 67.254 0 43.5 0ZM43.5 16.6452C51.9266 16.6452 58.7581 23.4766 58.7581 31.9032C58.7581 40.3298 51.9266 47.1613 43.5 47.1613C35.0734 47.1613 28.2419 40.3298 28.2419 31.9032C28.2419 23.4766 35.0734 16.6452 43.5 16.6452ZM43.5 76.2903C33.3222 76.2903 24.202 71.6782 18.0988 64.4653C21.3585 58.3274 27.7391 54.0968 35.1774 54.0968C35.5935 54.0968 36.0097 54.1661 36.4085 54.2875C38.6625 55.0157 41.0206 55.4839 43.5 55.4839C45.9794 55.4839 48.3548 55.0157 50.5915 54.2875C50.9903 54.1661 51.4065 54.0968 51.8226 54.0968C59.2609 54.0968 65.6415 58.3274 68.9012 64.4653C62.798 71.6782 53.6778 76.2903 43.5 76.2903Z" fill="white"/>
</svg>
