<svg width="31" height="33" viewBox="0 0 31 33" fill="none" xmlns="http://www.w3.org/2000/svg">
<path d="M24.3278 24.9928C24.3278 26.676 20.4286 28.0322 15.6211 28.0322C10.8137 28.0322 6.91449 26.6639 6.91449 24.9928C6.91449 23.3096 10.8137 21.9533 15.6211 21.9533C20.4286 21.9533 24.3278 23.3096 24.3278 24.9928Z" fill="#9EDCF2"/>
<mask id="mask0_2_97" style="mask-type:luminance" maskUnits="userSpaceOnUse" x="10" y="24" width="11" height="9">
<path d="M11.8793 30.442C12.0731 31.3502 12.5453 31.883 13.0176 32.1979H17.9945C18.6 31.7862 19.2176 31.0112 19.2176 29.558V25.8041C19.2176 25.8041 19.2902 24.8717 20.15 24.569C20.15 24.569 20.6465 24.2178 20.1137 24.0241C20.1137 24.0241 17.7524 23.8303 17.7524 25.7678V28.6256C17.7524 28.6256 17.8492 29.6791 17.2922 30.1151V26.5791C17.2922 26.5791 17.3285 25.453 17.9098 25.0291C17.9098 25.0291 18.2973 24.3389 17.4496 24.5205C17.4496 24.5205 15.827 24.7506 15.7543 26.6518L15.718 30.2846H15.3305L15.2942 26.6518C15.2215 24.7627 13.5988 24.5205 13.5988 24.5205C12.7512 24.3268 13.1387 25.0291 13.1387 25.0291C13.7199 25.453 13.7563 26.5791 13.7563 26.5791V30.1514C13.1992 29.7518 13.2961 28.6256 13.2961 28.6256V25.7678C13.2961 23.8303 10.9348 24.0241 10.9348 24.0241C10.3899 24.2178 10.8985 24.569 10.8985 24.569C11.7461 24.8838 11.8309 25.8041 11.8309 25.8041V28.4319L11.8793 30.442Z" fill="white"/>
</mask>
<g mask="url(#mask0_2_97)">
<path d="M24.3278 24.9928C24.3278 26.676 20.4286 28.0323 15.6211 28.0323C10.8137 28.0323 6.91449 26.6639 6.91449 24.9928C6.91449 23.3096 10.8137 21.9534 15.6211 21.9534C20.4286 21.9534 24.3278 23.3096 24.3278 24.9928Z" fill="#7DBCE7"/>
</g>
<path d="M5.6793 16.044L5.42501 16.9159C5.42501 16.9159 5.36446 17.2307 5.65509 17.2912C5.96993 17.2791 5.94571 16.9885 5.92149 16.9037L5.6793 16.044Z" fill="#9EDCF2"/>
<path d="M30.9758 12.3748L31 12.2658C28.4449 11.7572 25.8293 11.7451 24.243 11.8178C24.4973 10.8854 24.582 9.79553 24.582 8.5967C24.582 6.86506 23.9281 5.48459 22.8867 4.44318C23.0684 3.84983 23.3105 2.5299 22.6445 0.8467C22.6445 0.8467 21.4578 0.47131 18.7574 2.27561C17.7039 2.0092 16.5777 1.876 15.4516 1.876C14.2164 1.876 12.9691 2.03342 11.7945 2.34826C9.00938 0.447091 7.78633 0.834591 7.78633 0.834591C6.98711 2.83264 7.48359 4.32209 7.62891 4.68537C6.68437 5.70256 6.11523 6.99826 6.11523 8.58459C6.11523 9.78342 6.24844 10.8612 6.5875 11.7936C4.98906 11.733 2.47031 11.7572 0 12.2537L0.0242188 12.3627C2.49453 11.8662 5.0375 11.8541 6.62383 11.9147C6.69648 12.1084 6.78125 12.3022 6.86602 12.4838C5.2918 12.5322 2.61563 12.7381 0.0484375 13.4647L0.0847656 13.5737C2.67617 12.8471 5.37656 12.6533 6.93867 12.6049C7.8832 14.3487 9.72383 15.4869 13.0176 15.8381C12.5453 16.1529 12.073 16.6858 11.8793 17.594C11.2375 17.8967 9.22734 18.6475 8.01641 16.5647C8.01641 16.5647 7.33828 15.3295 6.04258 15.2326C6.04258 15.2326 4.7832 15.2084 5.95781 16.0197C5.95781 16.0197 6.79336 16.4194 7.37461 17.9088C7.37461 17.9088 8.1375 20.4518 11.7824 19.6283V22.2319C11.7824 22.2319 11.7098 23.1643 10.85 23.467C10.85 23.467 10.3414 23.8182 10.8863 24.0119C10.8863 24.0119 13.2477 24.2057 13.2477 22.2682V19.4104C13.2477 19.4104 13.1508 18.2721 13.7078 17.8846V22.583C13.7078 22.583 13.6715 23.7092 13.0902 24.133C13.0902 24.133 12.7027 24.8233 13.5504 24.6416C13.5504 24.6416 15.173 24.4115 15.2457 22.5104L15.282 17.7514H15.6695L15.7059 22.5104C15.7785 24.3994 17.4012 24.6416 17.4012 24.6416C18.2488 24.8354 17.8613 24.133 17.8613 24.133C17.2801 23.7092 17.2437 22.583 17.2437 22.583V17.9209C17.8008 18.3569 17.7039 19.4104 17.7039 19.4104V22.2682C17.7039 24.2057 20.0652 24.0119 20.0652 24.0119C20.6102 23.8182 20.1016 23.467 20.1016 23.467C19.2539 23.1522 19.1691 22.2319 19.1691 22.2319V18.478C19.1691 17.0127 18.5516 16.2377 17.9461 15.8381C21.4578 15.4869 23.141 14.3608 23.916 12.5928C25.4539 12.6291 28.227 12.8229 30.8668 13.5737L30.9031 13.4647C28.2754 12.726 25.5266 12.5322 23.9645 12.4838C24.0371 12.3022 24.0977 12.1205 24.1582 11.9268C25.7809 11.8662 28.4086 11.8662 30.9758 12.3748Z" fill="#010101"/>
<path d="M21.143 8.51193C21.8938 9.20217 22.3418 10.0256 22.3418 10.9096C22.3418 15.0752 19.2418 15.1842 15.4153 15.1842C11.5887 15.1842 8.48871 14.6029 8.48871 10.9096C8.48871 10.0256 8.92465 9.20217 9.67543 8.52404C10.9227 7.38576 13.0297 7.99123 15.4153 7.99123C17.8008 7.99123 19.8957 7.37365 21.143 8.51193Z" fill="#F5CCB3"/>
<path d="M13.1145 11.1276C13.1145 12.278 12.4727 13.1983 11.6734 13.1983C10.8742 13.1983 10.2324 12.2659 10.2324 11.1276C10.2324 9.97719 10.8742 9.05688 11.6734 9.05688C12.4727 9.04477 13.1145 9.97719 13.1145 11.1276Z" fill="white"/>
<path d="M12.6543 11.1518C12.6543 11.9147 12.2183 12.5322 11.6976 12.5322C11.1648 12.5322 10.741 11.9147 10.741 11.1518C10.741 10.3889 11.1769 9.7713 11.6976 9.7713C12.2183 9.7713 12.6543 10.3889 12.6543 11.1518Z" fill="#AF5C51"/>
<path d="M20.8523 11.1276C20.8523 12.278 20.2105 13.1983 19.4113 13.1983C18.6121 13.1983 17.9703 12.2659 17.9703 11.1276C17.9703 9.97719 18.6121 9.05688 19.4113 9.05688C20.1984 9.04477 20.8523 9.97719 20.8523 11.1276Z" fill="white"/>
<path d="M20.3801 11.1518C20.3801 11.9147 19.9441 12.5322 19.4234 12.5322C18.8906 12.5322 18.4668 11.9147 18.4668 11.1518C18.4668 10.3889 18.9027 9.7713 19.4234 9.7713C19.9562 9.7713 20.3801 10.3889 20.3801 11.1518Z" fill="#AF5C51"/>
<path d="M15.8027 12.9682C15.8027 13.1619 15.6453 13.3315 15.4395 13.3315C15.2457 13.3315 15.0762 13.174 15.0762 12.9682C15.0762 12.7623 15.2336 12.6049 15.4395 12.6049C15.6332 12.6049 15.8027 12.7623 15.8027 12.9682Z" fill="#AF5C51"/>
<path d="M14.6039 13.8764C14.5797 13.8158 14.616 13.7553 14.6766 13.7311C14.7371 13.7068 14.7976 13.7432 14.8219 13.8037C14.9187 14.0701 15.1609 14.2397 15.4394 14.2397C15.718 14.2397 15.9602 14.058 16.057 13.8037C16.0812 13.7432 16.1418 13.7068 16.2023 13.7311C16.2629 13.7553 16.2992 13.8158 16.275 13.8764C16.1539 14.2276 15.8148 14.4697 15.4394 14.4697C15.0641 14.4697 14.725 14.2276 14.6039 13.8764Z" fill="#AF5C51"/>
<path d="M6.59963 15.5233C6.59963 15.6201 6.49064 15.6928 6.34533 15.6928C6.21213 15.6928 6.09103 15.6201 6.09103 15.5233C6.09103 15.4264 6.20002 15.3537 6.34533 15.3537C6.49064 15.3537 6.59963 15.4264 6.59963 15.5233Z" fill="#C4E5D9"/>
<path d="M7.30193 15.9108C7.30193 16.0077 7.19294 16.0803 7.04763 16.0803C6.91443 16.0803 6.79333 16.0077 6.79333 15.9108C6.79333 15.8139 6.90232 15.7413 7.04763 15.7413C7.19294 15.7413 7.30193 15.8139 7.30193 15.9108Z" fill="#C4E5D9"/>
<path d="M7.72579 16.4194C7.72579 16.5163 7.6168 16.5889 7.47149 16.5889C7.33829 16.5889 7.21719 16.5163 7.21719 16.4194C7.21719 16.3225 7.32618 16.2498 7.47149 16.2498C7.6168 16.2377 7.72579 16.3225 7.72579 16.4194Z" fill="#C4E5D9"/>
<path d="M8.11327 17.0006C8.11327 17.0975 8.00428 17.1702 7.85897 17.1702C7.72577 17.1702 7.60468 17.0975 7.60468 17.0006C7.60468 16.9038 7.71366 16.8311 7.85897 16.8311C8.00428 16.819 8.11327 16.9038 8.11327 17.0006Z" fill="#C4E5D9"/>
<path d="M8.53713 17.5334C8.53713 17.6303 8.42814 17.703 8.28283 17.703C8.14963 17.703 8.02853 17.6303 8.02853 17.5334C8.02853 17.4365 8.13752 17.3639 8.28283 17.3639C8.42814 17.3639 8.53713 17.4365 8.53713 17.5334Z" fill="#C4E5D9"/>
<path d="M9.1184 18.0057C9.1184 18.1026 9.00941 18.1752 8.8641 18.1752C8.7309 18.1752 8.6098 18.1026 8.6098 18.0057C8.6098 17.9088 8.71879 17.8362 8.8641 17.8362C9.00941 17.8241 9.1184 17.9088 9.1184 18.0057Z" fill="#C4E5D9"/>
<path d="M9.92971 18.3084C9.92971 18.4053 9.82072 18.478 9.67541 18.478C9.54221 18.478 9.42111 18.4053 9.42111 18.3084C9.42111 18.2116 9.5301 18.1389 9.67541 18.1389C9.82072 18.1389 9.92971 18.2116 9.92971 18.3084Z" fill="#C4E5D9"/>
<path d="M10.741 18.3084C10.741 18.4053 10.632 18.478 10.4867 18.478C10.3535 18.478 10.2324 18.4053 10.2324 18.3084C10.2324 18.2116 10.3414 18.1389 10.4867 18.1389C10.632 18.1389 10.741 18.2116 10.741 18.3084Z" fill="#C4E5D9"/>
<path d="M11.5644 18.1752C11.5644 18.2721 11.4555 18.3448 11.3101 18.3448C11.1769 18.3448 11.0558 18.2721 11.0558 18.1752C11.0558 18.0784 11.1648 18.0057 11.3101 18.0057C11.4433 18.0057 11.5644 18.0784 11.5644 18.1752Z" fill="#C4E5D9"/>
</svg>
